Simulation
nRows=48
nColumns=15
endheader
time  TH_x TH_y TH_z SC_y  SC_z  SC_x  AC_y  AC_z  AC_x  GH_y  GH_z  GH_yy  EL_x  PS_y
5.745  0.000000  0.000000  0.000000  -27.129749405808337  26.507131923501422  -1.8486088844830437  29.84365676068585  -6.957371129943072  38.5300816006112  -69.89786448837106  26.81047799551147  50.74871822376769  16.409260116109195  120.000000
5.80245  0.000000  0.000000  0.000000  -45.34717280345852  13.844586534654528  1.1467900162648736  65.47574210549165  -3.173390794160353  -5.113914423289823  4.648913312368884  50.71827893250449  -27.760326731954617  5.20619093412405  120.000000
5.8599  0.000000  0.000000  0.000000  -71.47499745192452  -19.380449417735683  29.144193132256632  61.37053368283355  6.225563398809346  0.2035319758595757  -17.199579676316056  44.74640866264286  46.16924526920424  8.385944377341081  120.000000
5.91735  0.000000  0.000000  0.000000  -59.38215374824801  35.89797547537708  15.065268126629661  50.962055261861764  29.99746212210201  19.183458344276882  58.33273127446709  27.681832418432457  -79.34604458626522  29.938225988627707  120.000000
5.9748  0.000000  0.000000  0.000000  -69.86480217618316  13.495550319187613  7.150555116547841  57.08494111283301  26.350856791080886  22.498770793679956  37.52890470056254  22.95305901226327  -28.87521270496558  6.23121345306783  120.000000
6.03225  0.000000  0.000000  0.000000  -66.8244215234895  -5.944324475297064  7.805242680234088  49.328477077512424  20.077283326364114  -5.631474735149142  69.61573476273851  47.13553090134197  -86.55921932843611  9.741358697527732  120.000000
6.089700000000001  0.000000  0.000000  0.000000  -37.445330970422944  23.08304328345202  -13.918830570743424  49.38524014669113  0.7915071426364636  11.353255120230145  45.563089781389095  42.3243140491777  -60.45446884848117  29.848189191872212  120.000000
6.14715  0.000000  0.000000  0.000000  -56.80181285276822  9.377074074620282  -8.709724520891227  40.48131728797307  6.984027700828652  20.4822040151061  23.46042296984695  32.80867365293621  3.1054166534654386  16.324078140074906  120.000000
6.2046  0.000000  0.000000  0.000000  -56.015594040846274  -10.148930083789018  0.46315155283293874  53.88481577780401  10.27117429909478  -22.691554678476233  44.729371761197896  46.37474456055685  -64.1832498384767  14.577684974964654  120.000000
6.26205  0.000000  0.000000  0.000000  -27.778534694713983  -7.880342971790701  -0.3512084923015171  32.232144006905  -11.795650952304559  -6.68757092738491  -12.745244753278755  25.864855674119735  32.70758277466082  22.331320877752773  120.000000
6.3195  0.000000  0.000000  0.000000  -28.148507478967527  -12.8667763470394  -2.7797307153040065  51.98562098715133  -6.143138691540949  -9.334259996962102  -28.524090035147907  33.13060862437657  31.329476019558776  16.56258607812104  120.000000
6.37695  0.000000  0.000000  0.000000  -53.368028263995406  -4.874162966884833  -16.736579089054064  33.41678786578537  17.001747016884043  0.7825330435353283  41.17435572427883  21.22005148067509  -30.47438263425007  20.602359210127478  120.000000
6.4344  0.000000  0.000000  0.000000  -53.69947290133435  9.90894453096199  -13.109519118805512  47.219846973012686  15.554528387601964  12.573350617978809  26.98735177704001  21.48051917894317  -36.99248841392732  24.92738045909685  120.000000
6.49185  0.000000  0.000000  0.000000  -50.834680582088986  6.964627558379375  -9.10385549349803  58.94497942267932  1.2115059763444467  21.455474802244968  -24.38574070384939  46.43414622315989  18.189642921601795  23.093970167387624  120.000000
6.549300000000001  0.000000  0.000000  0.000000  -47.33572949756381  -5.067396987632065  -0.4405569330756698  53.885696208747014  1.2868759405313257  -0.6310048604915615  1.030638438269289  34.79309639609167  -8.634681297763242  21.788856834872266  120.000000
6.60675  0.000000  0.000000  0.000000  -37.916995471229725  -7.345570882781892  -8.395447743962022  47.74470319439822  -2.7395070204093086  3.106972514706007  -2.1252412852627858  43.65777799321578  -7.83955970273685  25.13206586838281  120.000000
6.6642  0.000000  0.000000  0.000000  -38.22883308870615  -4.809452078237507  -9.361803248755214  51.55832444154557  -1.005378993158815  6.2331561907268105  1.5435004343135863  35.55305425024733  -8.003765038718754  22.063356506252187  120.000000
6.72165  0.000000  0.000000  0.000000  -42.28794034957002  -5.981449830820911  -11.114317172760758  53.54208621509434  2.264161035954493  9.175376960389508  4.150895316410554  34.50411235354124  -5.45297834322071  22.95024533084535  120.000000
6.7791  0.000000  0.000000  0.000000  -41.33891610449395  -4.380061195079811  -11.486183229690205  53.473647975801114  1.7143959630429821  8.62588010934157  11.458288922137278  35.12200417152086  -18.212831012483047  25.566840813880493  120.000000
6.83655  0.000000  0.000000  0.000000  -40.56452045804739  -3.717879223864623  -12.073657031103792  54.79661206764153  1.539625381692452  13.056217437151567  1.5138536636765871  36.516436854696984  -6.4858664704445514  26.250886921148684  120.000000
6.894  0.000000  0.000000  0.000000  -41.652686821348595  -4.907601073025519  -10.71413137373256  55.61094430302539  0.566719600114188  9.796051989322127  7.2059455622509105  39.693428205193435  -10.234539374510032  25.039585166285825  120.000000
6.95145  0.000000  0.000000  0.000000  -41.3320921563205  -4.028449683955325  -8.911315435541646  55.401062186320175  0.670037608456406  11.216902025432937  2.6820833099601638  36.48438458339803  -10.10872799479835  27.512854897889106  120.000000
7.008900000000001  0.000000  0.000000  0.000000  -42.94124601969492  -3.4517809855665553  -7.3816071450929535  53.46533048291804  -2.495441219387701  7.357928435139878  11.40579485766162  41.03851502762169  -17.86325649080485  27.00177680760809  120.000000
7.06635  0.000000  0.000000  0.000000  -45.87470951637295  -1.510456636748567  -4.1403890724207315  51.464301720460554  1.7080784308755308  5.348534531941186  20.781886154305344  32.47909741306585  -23.845042033520127  26.999034025402054  120.000000
7.1238  0.000000  0.000000  0.000000  -46.49965957393741  -0.4093539653660243  -8.1649289473762  53.17901790977323  3.395028505305216  8.537055182572905  13.351093780205742  34.53406441332607  -15.36648920681465  26.12848208272335  120.000000
7.18125  0.000000  0.000000  0.000000  -45.591935311246615  -0.5900587487075168  -6.750079733352162  55.14695900187141  0.07880552710178759  11.18140305301151  -1.3363540177565045  38.185836637466466  -5.023726838810846  27.24590282731359  120.000000
7.2387  0.000000  0.000000  0.000000  -45.33054382356171  -2.03722913956341  -4.668363494710268  52.63211474359164  -1.0222527172769225  5.590871486942277  7.03862432114165  38.97302217269613  -14.679199718084028  26.810710049879653  120.000000
7.29615  0.000000  0.000000  0.000000  -45.339125996045595  -2.4589720971406175  -4.779859121819541  50.44349306524452  0.2532879155374215  4.295826011438282  10.507848832953574  37.61567863737036  -15.261263585052951  26.909879148183006  120.000000
7.3536  0.000000  0.000000  0.000000  -44.95025724071859  -1.913112307060905  -7.083350321779932  51.88153616296944  1.6590562592882834  6.338517582617752  6.470601491649208  37.20695919287077  -11.13788840271603  26.407332527562414  120.000000
7.41105  0.000000  0.000000  0.000000  -44.352762205293736  -2.2752836154039504  -7.520192740830037  53.04146378060077  -0.12306280588379226  8.737985233722117  -0.20076429217561753  40.33108983346988  -5.439458082643581  26.747636544821773  120.000000
7.468500000000001  0.000000  0.000000  0.000000  -44.27520652463496  -2.7168470127652866  -5.912108024326422  52.53197328893123  -0.7495259557469406  6.1671279188432795  4.131427479184105  39.592090018671286  -10.935011719789932  26.56432902978389  120.000000
7.52595  0.000000  0.000000  0.000000  -44.44735567457916  -2.7496280539778004  -6.056199929678948  51.9819740899368  0.06051905196642139  6.372252027948132  5.514630683265038  38.231061079710315  -11.05900056320895  26.519012561089344  120.000000
7.5834  0.000000  0.000000  0.000000  -44.437360350688984  -2.4077953748479395  -7.2242598663456326  52.81331567718999  0.7246632757023046  7.323653356552015  5.352296865466294  38.102716032197534  -11.223538563444656  26.362729604420164  120.000000
7.64085  0.000000  0.000000  0.000000  -44.37439706078815  -2.365483197118821  -7.488778731543402  52.898988130145376  0.4155340076342953  8.363982402525734  4.361528702999902  38.37338809708192  -10.208645923502623  26.540925389577485  120.000000
7.6983  0.000000  0.000000  0.000000  -44.340517649950684  -2.4294617029828465  -7.2170841018864715  53.31319315526095  0.34531785730265296  7.934033865584147  5.2891136960769956  38.15905224350792  -11.573284664486936  26.41182933582167  120.000000
7.75575  0.000000  0.000000  0.000000  -44.30673815056049  -2.4142039402415647  -7.176398011016936  53.477123298435714  0.14222638354651868  8.643952842265408  4.1078784822567895  38.09100488440162  -10.421553104317084  26.63633869467257  120.000000
7.8132  0.000000  0.000000  0.000000  -44.37815708256086  -2.4840824481283317  -6.270001363476676  53.26949221791844  -0.8576250167455269  7.551712325062935  6.006119329871624  38.62713877724247  -12.061038353874473  26.50367743556527  120.000000
7.87065  0.000000  0.000000  0.000000  -44.50716141408654  -2.3769107818993813  -5.68064512597324  52.79808119491863  -0.36822669188422325  7.067965990365803  7.281783273251043  36.938588775503625  -12.707223969020255  26.63660443403697  120.000000
7.928100000000001  0.000000  0.000000  0.000000  -44.53349139552923  -2.3806797819284577  -6.943451669173676  52.88024542258963  0.2839130536087807  7.587124190917167  7.571862491569176  37.33736943518926  -12.584215966973325  26.56904053413871  120.000000
7.98555  0.000000  0.000000  0.000000  -44.581832946310634  -2.2375914800597774  -7.046413831302847  53.301817613276405  0.1964128558448933  8.384033372560118  6.088824612627475  37.27799243675582  -11.473571675858114  26.5854491582601  120.000000
8.043  0.000000  0.000000  0.000000  -44.587630374866876  -2.1333579374039173  -6.877865015280244  53.28433730602673  0.08580389902233573  8.22646870239484  6.939129344831129  36.98527800011925  -12.501136952433002  26.46809502131484  120.000000
8.10045  0.000000  0.000000  0.000000  -44.733531754450645  -2.3482398173582117  -6.778968744630883  53.19502582028186  0.11244084003731462  7.971776717489235  7.549335192641969  36.875172674985066  -12.643012696027895  26.367539172420166  120.000000
8.1579  0.000000  0.000000  0.000000  -44.481134094792814  -2.448318308920757  -6.348740555298237  53.367364056739355  -0.46726466302947667  7.94059907976273  6.1047834442981666  37.19440655503303  -11.101017623884877  26.495549643329547  120.000000
8.21535  0.000000  0.000000  0.000000  -44.31031221625243  -2.2205448042257476  -6.176290947429529  52.98475712303995  -0.7827209811335204  7.686355429249281  6.398048809756658  37.18391979744527  -11.543233891486711  26.784297989945607  120.000000
8.2728  0.000000  0.000000  0.000000  -45.23953905282091  -1.998391878085576  -6.925719933705929  52.03908948515893  1.0953786273156196  7.201738958601053  11.268355288124823  35.78389582686153  -15.714478112830928  26.547471855533125  120.000000
8.33025  0.000000  0.000000  0.000000  -45.45132706366225  -1.9384455475861833  -7.898762765491011  53.17261341232245  1.3990783729608611  8.632987856434797  8.485283668634432  36.607603386974006  -13.299070294412436  26.319416260594224  120.000000
8.3877  0.000000  0.000000  0.000000  -44.20852944031283  -1.9678722310793673  -6.141127428461384  54.2506622225119  -1.4290616575612862  9.33579417310708  2.0782411814577237  37.9650006008883  -8.077922304891098  26.720437743797063  120.000000
8.44515  0.000000  0.000000  0.000000  -44.21737397146058  -2.4701767645846386  -5.131177444681373  52.98250435302027  -1.5386199889762608  6.969916594088618  6.375541489445054  37.21070357693993  -11.949396831035633  26.678279152110136  120.000000
